<?xml version="1.0" encoding="UTF-8" standalone="no"?>
<!-- Created with Inkscape (http://www.inkscape.org/) -->

<svg
   width="60mm"
   height="60mm"
   viewBox="0 0 60 60"
   version="1.1"
   id="svg1"
   xml:space="preserve"
   sodipodi:docname="metarun_logo.svg"
   inkscape:version="1.3.2 (091e20e, 2023-11-25, custom)"
   xmlns:inkscape="http://www.inkscape.org/namespaces/inkscape"
   xmlns:sodipodi="http://sodipodi.sourceforge.net/DTD/sodipodi-0.dtd"
   xmlns="http://www.w3.org/2000/svg"
   xmlns:svg="http://www.w3.org/2000/svg"><sodipodi:namedview
     id="namedview1"
     pagecolor="#ffffff"
     bordercolor="#000000"
     borderopacity="0.25"
     inkscape:showpageshadow="2"
     inkscape:pageopacity="0.0"
     inkscape:pagecheckerboard="0"
     inkscape:deskcolor="#d1d1d1"
     inkscape:document-units="mm"
     inkscape:zoom="2"
     inkscape:cx="48.75"
     inkscape:cy="86"
     inkscape:window-width="1920"
     inkscape:window-height="1018"
     inkscape:window-x="-6"
     inkscape:window-y="-6"
     inkscape:window-maximized="1"
     inkscape:current-layer="layer1" /><defs
     id="defs1" /><g
     inkscape:label="Layer 1"
     inkscape:groupmode="layer"
     id="layer1"
     transform="translate(-80.742699,-95.737228)"><circle
       style="fill:#242325;fill-opacity:1;stroke:none;stroke-width:0.264583"
       id="path1"
       cx="110.7427"
       cy="125.73723"
       r="30" /><path
       style="fill:#27bd9f;fill-opacity:1;stroke:none;stroke-width:0.264583"
       d="m 101.16902,129.08359 0.3669,-0.13642 -0.13023,-0.21808 z"
       id="path5" /><g
       id="g12"
       style="fill:#ffbf00;fill-opacity:1"
       transform="translate(0.05148367,0.02807839)"><path
         style="fill:#ffbf00;fill-opacity:1;stroke-width:0.673234"
         d="m 123.83547,133.2809 -1.80857,-3.0416 v -0.18588 -0.18588 l 1.92255,-3.3632 1.92255,-3.3632 0.16959,-0.18026 0.1696,-0.18025 0.8332,1.48652 0.8332,1.48651 2.77355,4.90574 2.77354,4.90572 0.14532,0.37869 0.14531,0.37869 h -4.03563 -4.03563 z"
         id="path12" /><path
         style="fill:#ffbf00;fill-opacity:1;stroke:none;stroke-width:0.264583"
         d="m 125.87242,123.1439 0.27699,-0.48886 0.0641,0.13023 z"
         id="path7" /><path
         style="fill:#ffbf00;fill-opacity:1;stroke:none;stroke-width:0.264583"
         d="m 122.02769,130.23804 -0.13643,-0.1943 0.13746,-0.17777 z"
         id="path8" /></g><g
       id="g14"
       style="fill:#f6f6f6;fill-opacity:1"
       transform="translate(0.05148367,0.02807839)"><g
         id="g13"
         style="fill:#f6f6f6;fill-opacity:1"><path
           style="fill:#f6f6f6;fill-opacity:1;stroke-width:0.673234"
           d="m 106.24729,137.01771 -4.71402,-8.07454 -0.17836,0.0678 -0.17836,0.0678 -2.396831,3.6219 -2.396828,3.62191 -0.299985,0.0105 -0.299984,0.0105 -3.909417,-0.0209 -3.909416,-0.0209 -0.097,-0.097 -0.097,-0.097 6.600501,-11.51889 6.6005,-11.51888 0.15743,0.0973 0.15744,0.0973 4.72979,8.19575 4.7298,8.19574 0.1231,0.008 0.12312,0.008 2.07692,-3.74065 2.07692,-3.74066 2.25313,-4.03062 2.25313,-4.03064 v -0.24936 -0.24937 l -1.06647,-0.58259 -1.06649,-0.58259 0.2946,-0.2695 0.2946,-0.26949 5.07928,-2.77209 5.07928,-2.77207 0.0592,0.0666 0.0593,0.0666 0.17272,6.11567 0.17272,6.11568 h -0.17691 -0.17691 l -0.83325,-0.51498 -0.83325,-0.51498 -0.33734,0.45561 -0.33733,0.4556 -3.99494,7.00631 -3.99493,7.0063 -3.49363,6.17505 -3.49361,6.17505 -0.0486,0.0505 -0.0486,0.0505 z"
           id="path4" /><path
           style="fill:#f6f6f6;fill-opacity:1;stroke:none;stroke-width:0.264583"
           d="m 101.28581,113.2675 -0.31626,-0.19326 0.13436,-0.22635 z"
           id="path6" /><path
           style="fill:#f6f6f6;fill-opacity:1;stroke:none;stroke-width:0.264583"
           d="m 118.11062,111.92702 -0.85163,0.41238 0.26355,0.12712 z"
           id="path9" /><path
           style="fill:#f6f6f6;fill-opacity:1;stroke:none;stroke-width:0.264583"
           d="m 128.26607,106.38317 0.11989,0.13539 -0.005,-0.19224 z"
           id="path10" /><path
           style="fill:#f6f6f6;fill-opacity:1;stroke:none;stroke-width:0.264583"
           d="m 128.37459,118.74417 0.3576,0.20361 -0.003,-0.20361 z"
           id="path11" /></g><path
         style="fill:#f6f6f6;fill-opacity:1;stroke:none;stroke-width:0.264583"
         d="m 87.773818,136.107 0.192934,0.1944 -0.299632,-0.003 z"
         id="path13" /></g></g></svg>
